# xmcd CD database file
#
# Track frame offsets:
#	150
#	18549
#	38065
#	67058
#	85752
#	99752
#	117993
#	136548
#	169429
#	198849
#	223913
#	242469
#	262949
#	284376
#	303454
#	321860
#
# Disc length: 4495 seconds
#
# Revision: 0
# Processed by: cddbd v1.4PL0 Copyright (c) Steve Scherf et al.
# Submitted via: CDex 1.50
#
DISCID=dc118d10
DTITLE=City Of God - Remixed
DYEAR=2003
DGENRE=Salsa
TTITLE0=Drumagick - Amor De Verao Remix
TTITLE1=Gui Borato - Molestado (Edit)
TTITLE2=Difusora - Convite Para Via Remix
TTITLE3=AD - AD Remix CDD Saque Ao Motel 
TTITLE4=Instituto - Samba Trio Remix
TTITLE5=Autoload - Ze Pequeno Autoload Mix
TTITLE6=DJ Periferico - Dadinho DJ Periferico Break Mix
TTITLE7=Meitz - Morte Ze Pequeno Remix
TTITLE8=Ramilson Maia - A Busca Da Vida
TTITLE9=Renato Cohen - Light Galinha
TTITLE10=Mad Zoo - Mad Zoo Dubsessions Mix
TTITLE11=Edson X - Samba Fuckin Night
TTITLE12=Apollo 9 - Busca Remix
TTITLE13=Mamelo Sound System - Chapa Cidade 2 Pra 1
TTITLE14=Drumagick - Ze Pequeno Noia Remix (Edit)
TTITLE15=Beto Villares - Convite Para Vida Remix
EXTD=YEAR: 2003
EXTT0=
EXTT1=
EXTT2=
EXTT3=
EXTT4=
EXTT5=
EXTT6=
EXTT7=
EXTT8=
EXTT9=
EXTT10=
EXTT11=
EXTT12=
EXTT13=
EXTT14=
EXTT15=
PLAYORDER=
